<svg width="80" height="80" viewBox="0 0 80 80" fill="none" xmlns="http://www.w3.org/2000/svg">
<path d="M55.625 23.75C55.625 24.0938 55.3438 24.375 55 24.375H50.625C50.2812 24.375 50 24.0938 50 23.75V20H30V23.75C30 24.0938 29.7188 24.375 29.375 24.375H25C24.6562 24.375 24.375 24.0938 24.375 23.75V20H14.375V30.625H65.625V20H55.625V23.75Z" fill="black" fill-opacity="0.15"/>
<path d="M68.75 14.375H55.625V9.375C55.625 9.03125 55.3438 8.75 55 8.75H50.625C50.2812 8.75 50 9.03125 50 9.375V14.375H30V9.375C30 9.03125 29.7188 8.75 29.375 8.75H25C24.6562 8.75 24.375 9.03125 24.375 9.375V14.375H11.25C9.86719 14.375 8.75 15.4922 8.75 16.875V68.75C8.75 70.1328 9.86719 71.25 11.25 71.25H68.75C70.1328 71.25 71.25 70.1328 71.25 68.75V16.875C71.25 15.4922 70.1328 14.375 68.75 14.375ZM65.625 65.625H14.375V35.9375H65.625V65.625ZM65.625 30.625H14.375V20H24.375V23.75C24.375 24.0938 24.6562 24.375 25 24.375H29.375C29.7188 24.375 30 24.0938 30 23.75V20H50V23.75C50 24.0938 50.2812 24.375 50.625 24.375H55C55.3438 24.375 55.625 24.0938 55.625 23.75V20H65.625V30.625Z" fill="black"/>
</svg>
