<svg width="80" height="80" viewBox="0 0 80 80" fill="none" xmlns="http://www.w3.org/2000/svg">
<path d="M62.5 25H17.5C15.5115 25.002 13.605 25.7928 12.1989 27.1989C10.7928 28.605 10.002 30.5115 10 32.5V47.5C10.0013 48.8257 10.5285 50.0967 11.4659 51.0341C12.4033 51.9715 13.6743 52.4987 15 52.5V70C15.0013 71.3257 15.5285 72.5967 16.4659 73.5341C17.4033 74.4715 18.6743 74.9987 20 75H30C31.3257 74.9987 32.5967 74.4715 33.5341 73.5341C34.4715 72.5967 34.9987 71.3257 35 70V40H30V70H20V47.5H15V32.5C15 31.837 15.2634 31.2011 15.7322 30.7322C16.2011 30.2634 16.837 30 17.5 30H62.5C63.163 30 63.7989 30.2634 64.2678 30.7322C64.7366 31.2011 65 31.837 65 32.5V47.5H60V70H50V40H45V70C45.0013 71.3257 45.5285 72.5967 46.4659 73.5341C47.4033 74.4715 48.6743 74.9987 50 75H60C61.3257 74.9987 62.5967 74.4715 63.5341 73.5341C64.4715 72.5967 64.9987 71.3257 65 70V52.5C66.3257 52.4987 67.5967 51.9715 68.5341 51.0341C69.4715 50.0967 69.9987 48.8257 70 47.5V32.5C69.998 30.5115 69.2072 28.605 67.8011 27.1989C66.395 25.7928 64.4885 25.002 62.5 25V25ZM25 22.5C23.0222 22.5 21.0888 21.9135 19.4443 20.8147C17.7998 19.7159 16.5181 18.1541 15.7612 16.3268C15.0043 14.4996 14.8063 12.4889 15.1921 10.5491C15.578 8.60929 16.5304 6.82746 17.9289 5.42894C19.3275 4.03041 21.1093 3.078 23.0491 2.69215C24.9889 2.3063 26.9996 2.50433 28.8268 3.26121C30.6541 4.01809 32.2159 5.29981 33.3147 6.9443C34.4135 8.58879 35 10.5222 35 12.5C34.9974 15.1514 33.9429 17.6934 32.0681 19.5681C30.1934 21.4429 27.6514 22.4974 25 22.5ZM25 7.5C24.0111 7.5 23.0444 7.79325 22.2221 8.34266C21.3999 8.89206 20.759 9.67296 20.3806 10.5866C20.0022 11.5002 19.9031 12.5056 20.0961 13.4755C20.289 14.4454 20.7652 15.3363 21.4645 16.0355C22.1637 16.7348 23.0546 17.211 24.0245 17.4039C24.9945 17.5969 25.9998 17.4978 26.9134 17.1194C27.827 16.741 28.6079 16.1001 29.1573 15.2779C29.7068 14.4556 30 13.4889 30 12.5C29.9987 11.1743 29.4715 9.90333 28.5341 8.96593C27.5967 8.02854 26.3257 7.50133 25 7.5V7.5ZM55 22.5C53.0222 22.5 51.0888 21.9135 49.4443 20.8147C47.7998 19.7159 46.5181 18.1541 45.7612 16.3268C45.0043 14.4996 44.8063 12.4889 45.1921 10.5491C45.578 8.60929 46.5304 6.82746 47.9289 5.42894C49.3275 4.03041 51.1093 3.078 53.0491 2.69215C54.9889 2.3063 56.9996 2.50433 58.8268 3.26121C60.6541 4.01809 62.2159 5.29981 63.3147 6.9443C64.4135 8.58879 65 10.5222 65 12.5C64.9974 15.1514 63.9429 17.6934 62.0681 19.5681C60.1934 21.4429 57.6514 22.4974 55 22.5ZM55 7.5C54.0111 7.5 53.0444 7.79325 52.2221 8.34266C51.3999 8.89206 50.759 9.67296 50.3806 10.5866C50.0022 11.5002 49.9031 12.5056 50.0961 13.4755C50.289 14.4454 50.7652 15.3363 51.4645 16.0355C52.1637 16.7348 53.0546 17.211 54.0245 17.4039C54.9945 17.5969 55.9998 17.4978 56.9134 17.1194C57.827 16.741 58.6079 16.1001 59.1573 15.2779C59.7068 14.4556 60 13.4889 60 12.5C59.9987 11.1743 59.4715 9.90333 58.5341 8.96593C57.5967 8.02854 56.3257 7.50133 55 7.5V7.5Z" fill="black"/>
</svg>
