<svg width="80" height="80" viewBox="0 0 80 80" fill="none" xmlns="http://www.w3.org/2000/svg">
<g clip-path="url(#clip0_1_9)">
<path d="M71.1112 33.3333H68.889V20C68.889 19.4106 68.6548 18.8454 68.2381 18.4286C67.8213 18.0119 67.2561 17.7778 66.6667 17.7778H13.3334C12.8072 17.7864 12.295 17.6079 11.8881 17.2742C11.4811 16.9405 11.2058 16.4732 11.1112 15.9556V15.1556C11.2058 14.6379 11.4811 14.1706 11.8881 13.8369C12.295 13.5032 12.8072 13.3247 13.3334 13.3333H65.7334C66.3228 13.3333 66.888 13.0992 67.3047 12.6825C67.7215 12.2657 67.9556 11.7005 67.9556 11.1111C67.9556 10.5217 67.7215 9.95651 67.3047 9.53976C66.888 9.12301 66.3228 8.88889 65.7334 8.88889H13.3334C11.5653 8.88889 9.86959 9.59126 8.61935 10.8415C7.36911 12.0917 6.66673 13.7874 6.66673 15.5556C6.65113 15.822 6.65113 16.0891 6.66673 16.3556V62.0667C6.67545 63.2632 6.91976 64.4462 7.38572 65.5483C7.85167 66.6504 8.53014 67.6499 9.38238 68.4897C10.2346 69.3296 11.2439 69.9934 12.3527 70.4431C13.4615 70.8929 14.648 71.1199 15.8445 71.1111H66.6667C67.2561 71.1111 67.8213 70.877 68.2381 70.4602C68.6548 70.0435 68.889 69.4783 68.889 68.8889V55.5556H71.1112C71.7005 55.5556 72.2658 55.3214 72.6825 54.9047C73.0993 54.4879 73.3334 53.9227 73.3334 53.3333V35.5556C73.3334 34.9662 73.0993 34.401 72.6825 33.9842C72.2658 33.5675 71.7005 33.3333 71.1112 33.3333ZM64.4445 66.6667H15.8445C14.6085 66.6786 13.4178 66.202 12.5314 65.3406C11.645 64.4791 11.1345 63.3025 11.1112 62.0667V21.9556C11.8325 22.1646 12.5831 22.2547 13.3334 22.2222H64.4445V33.3333H48.889C45.9421 33.3333 43.1159 34.504 41.0322 36.5877C38.9485 38.6714 37.7778 41.4976 37.7778 44.4444C37.7778 47.3913 38.9485 50.2174 41.0322 52.3012C43.1159 54.3849 45.9421 55.5556 48.889 55.5556H64.4445V66.6667ZM68.889 51.1111H48.889C47.1208 51.1111 45.4251 50.4087 44.1749 49.1585C42.9247 47.9082 42.2223 46.2126 42.2223 44.4444C42.2223 42.6763 42.9247 40.9806 44.1749 39.7304C45.4251 38.4802 47.1208 37.7778 48.889 37.7778H68.889V51.1111Z" fill="black"/>
<path d="M51.1334 47.7778C52.9743 47.7778 54.4667 46.2854 54.4667 44.4444C54.4667 42.6035 52.9743 41.1111 51.1334 41.1111C49.2924 41.1111 47.8 42.6035 47.8 44.4444C47.8 46.2854 49.2924 47.7778 51.1334 47.7778Z" fill="black"/>
</g>
<defs>
<clipPath id="clip0_1_9">
<rect width="80" height="80" fill="white"/>
</clipPath>
</defs>
</svg>
