<svg width="80" height="80" viewBox="0 0 80 80" fill="none" xmlns="http://www.w3.org/2000/svg">
<path d="M40 9.99999C33.7715 9.99999 29.1115 10.8743 26.2572 11.6257C25.1515 11.9171 24.3143 12.1886 23.7715 12.3829C23.5236 12.4703 23.2778 12.5637 23.0343 12.6629L23.0115 12.6743C22.494 12.893 21.9113 12.8997 21.3889 12.693C20.8665 12.4863 20.4462 12.0827 20.2184 11.5691C19.9907 11.0556 19.9737 10.4731 20.1712 9.94717C20.3687 9.42123 20.7648 8.99388 21.2743 8.75714C21.2743 8.75714 21.9657 8.47999 21.2857 8.75142L21.3057 8.74285L21.3657 8.71428L21.5743 8.62856C21.7515 8.55999 22.0029 8.46285 22.3315 8.34285C22.9886 8.11428 23.9372 7.80285 25.1715 7.47999C28.34 6.64571 33.3715 5.71428 40 5.71428C46.6315 5.71428 51.66 6.64571 54.8286 7.47999C56.0629 7.80285 57.0143 8.11142 57.6686 8.34571C57.9935 8.46157 58.3155 8.58542 58.6343 8.71714L58.6972 8.74285L58.7143 8.75142H58.7229V8.75428C59.2353 8.98863 59.6349 9.4154 59.8349 9.94219C60.035 10.469 60.0195 11.0534 59.7919 11.5688C59.5642 12.0843 59.1427 12.4893 58.6185 12.6962C58.0944 12.9031 57.5098 12.8952 56.9915 12.6743H56.9886L56.9657 12.6629C55.9112 12.2586 54.8353 11.9123 53.7429 11.6257C50.8915 10.8743 46.2286 9.99999 40 9.99999ZM20.7143 20C18.6305 20 16.632 20.8278 15.1585 22.3013C13.685 23.7748 12.8572 25.7733 12.8572 27.8571V52.1428C12.8572 54.2267 13.685 56.2252 15.1585 57.6987C16.632 59.1722 18.6305 60 20.7143 60H45C47.0839 60 49.0824 59.1722 50.5559 57.6987C52.0294 56.2252 52.8572 54.2267 52.8572 52.1428V48.96L64.4743 56.5514C65.0133 56.9038 65.6374 57.1038 66.2807 57.1305C66.9241 57.1572 67.5627 57.0094 68.1289 56.7028C68.6951 56.3963 69.168 55.9424 69.4973 55.3891C69.8267 54.8359 70.0004 54.2039 70 53.56V26.44C70.0004 25.7961 69.8267 25.1641 69.4973 24.6108C69.168 24.0576 68.6951 23.6037 68.1289 23.2971C67.5627 22.9906 66.9241 22.8428 66.2807 22.8695C65.6374 22.8961 65.0133 23.0962 64.4743 23.4486L52.8572 31.04V27.8571C52.8572 25.7733 52.0294 23.7748 50.5559 22.3013C49.0824 20.8278 47.0839 20 45 20H20.7143ZM52.8572 36.16L65.7143 27.76V52.24L52.8572 43.84V36.16ZM17.1429 27.8571C17.1429 25.8857 18.7429 24.2857 20.7143 24.2857H45C46.9715 24.2857 48.5715 25.8857 48.5715 27.8571V52.1428C48.5715 54.1143 46.9715 55.7143 45 55.7143H20.7143C18.7429 55.7143 17.1429 54.1143 17.1429 52.1428V27.8571ZM26.2572 68.3743C29.1115 69.1257 33.7715 70 40 70C46.2286 70 50.8915 69.1257 53.7429 68.3743C54.8515 68.0828 55.6857 67.8114 56.2315 67.6171C56.5057 67.52 56.7058 67.4428 56.8315 67.3914C56.8943 67.3657 56.94 67.3486 56.9657 67.3343L56.9886 67.3286L56.9915 67.3257C57.5113 67.0957 58.1012 67.0817 58.6314 67.2866C59.1616 67.4916 59.5886 67.8987 59.8186 68.4186C60.0486 68.9384 60.0626 69.5283 59.8577 70.0585C59.6527 70.5887 59.2456 71.0157 58.7258 71.2457H58.7229L58.7143 71.2486L58.6972 71.2571L58.6343 71.2857C58.3155 71.4174 57.9935 71.5413 57.6686 71.6571C57.0115 71.8857 56.0629 72.1971 54.8315 72.52C51.66 73.3543 46.6315 74.2857 40.0029 74.2857C33.3686 74.2857 28.34 73.3543 25.1715 72.52C24.213 72.2715 23.2655 71.9827 22.3315 71.6543C22.0065 71.5385 21.6845 71.4147 21.3657 71.2828L21.3057 71.2571L21.2857 71.2486C21.2819 71.2467 21.2781 71.2447 21.2743 71.2428C20.773 71.0009 20.3855 70.5733 20.1939 70.0506C20.0023 69.528 20.0216 68.9513 20.2477 68.4426C20.4738 67.9339 20.889 67.5332 21.4054 67.3253C21.9218 67.1174 22.4988 67.1185 23.0143 67.3286L23.0343 67.3371L23.1686 67.3943C23.2972 67.4428 23.4972 67.52 23.7686 67.6171C24.3143 67.8114 25.1515 68.0828 26.26 68.3743H26.2572Z" fill="black"/>
</svg>
