<svg width="80" height="80" viewBox="0 0 80 80" fill="none" xmlns="http://www.w3.org/2000/svg">
<path d="M39.9666 6.66666C21.5666 6.66666 6.66663 21.6 6.66663 40C6.66663 58.4 21.5666 73.3333 39.9666 73.3333C58.4 73.3333 73.3333 58.4 73.3333 40C73.3333 21.6 58.4 6.66666 39.9666 6.66666ZM40 66.6667C25.2666 66.6667 13.3333 54.7333 13.3333 40C13.3333 25.2667 25.2666 13.3333 40 13.3333C54.7333 13.3333 66.6666 25.2667 66.6666 40C66.6666 54.7333 54.7333 66.6667 40 66.6667Z" fill="black"/>
<path d="M41.6666 23.3333H36.6666V43.3333L54.1666 53.8333L56.6666 49.7333L41.6666 40.8333V23.3333Z" fill="black"/>
</svg>
